<svg xmlns="http://www.w3.org/2000/svg" width="906" height="3020.72" viewBox="0 0 906 3020.72">
  <g id="Group_2116" data-name="Group 2116" transform="translate(-171.965 -52.278)">
    <path id="Path_803" data-name="Path 803" d="M258.954,1925.418a6.177,6.177,0,0,1-.773-.048c-5.462-.682-19.517-13.517-34.671-27.754-3.164-2.972-5.663-5.32-7.026-6.487-6.206-5.32-31.619-38.547-34.356-46.755-2.018-6.056-3.907-28.722-5.573-48.721-.523-6.268-1.016-12.189-1.449-16.733-.383-4.022-.911-8.023-1.422-11.892-1.868-14.155-3.481-26.38,2.343-34.147,6.408-8.543,40.12-85.611,42.454-113.608.768-9.22.366-29.971-.144-56.243-1.013-52.27-2.544-131.261,3.615-198.249,6.882-74.838,21.292-110,29.9-131.006,3.019-7.366,5.4-13.184,6.569-18.43,2.506-11.278,2.064-63.252,1.553-123.431-.421-49.619-.9-105.86.139-152.1l.177-7.859c2.144-95.717,2.419-108.015,12.883-152.132,16.8-70.85,55.076-80.121,118.48-95.482l5.133-1.245c31.588-7.675,68.557-20.657,101.428-35.619,35.138-15.994,48.234-26.392,48.234-29.191V553.459a1.751,1.751,0,1,1,3.5,0v64.824c0,8.566-35.167,25.5-50.286,32.378-33.063,15.048-70.259,28.109-102.052,35.834l-5.135,1.245c-31.628,7.662-56.61,13.715-75.64,26.439-20.134,13.463-32.548,33.955-40.255,66.448-10.379,43.757-10.654,56.013-12.791,151.4l-.176,7.86c-1.038,46.191-.559,102.4-.139,152,.534,62.882.957,112.552-1.636,124.22-1.23,5.537-3.665,11.478-6.747,19-8.536,20.826-22.822,55.684-29.656,130-6.142,66.794-4.612,145.668-3.6,197.861.511,26.372.916,47.2.133,56.6-2.37,28.435-36.63,106.735-43.144,115.419-4.966,6.623-3.439,18.192-1.671,31.587.515,3.9,1.046,7.933,1.437,12.019.434,4.563.928,10.495,1.452,16.772,1.568,18.823,3.521,42.248,5.406,47.906,2.541,7.623,27.45,40.177,33.313,45.2,1.422,1.219,3.947,3.591,7.144,6.594,9.063,8.515,27.924,26.234,32.707,26.831,1.409.174,2.941-.77,4.231-2.594,3.952-5.585,4.7-17.7-2.544-32.188a1.752,1.752,0,0,1,2.858-1.967c5.394,5.885,9.8,10.912,13.694,15.347,9.048,10.312,14.51,16.539,18.228,17.069.993.145,2.9-.975,4.779-3.757a26.433,26.433,0,0,0,.4-27.466,1.75,1.75,0,0,1,.327-2.164c4.621-4.267,6.45-9.928,5.018-15.533-1.284-5.026-5-8.994-9.461-10.11a1.753,1.753,0,0,1-1.256-2.193c1.059-3.6.2-7.293-2.551-10.97-6.511-8.7-21.46-14.546-31.338-14.546a1.751,1.751,0,0,1-1.75-1.8c.1-3.222.173-6.413.248-9.563.582-24.54,1.132-47.719,12.171-65.064,11.912-18.72,13.486-55.773,4.108-96.7-9.728-42.45-3.945-63.5,36.5-175.359,40.6-112.291,48.472-211.093,46.747-234.377-.761-10.26,4.7-33.574,11.618-63.089,9.123-38.935,20.476-87.39,21.963-125.524a1.751,1.751,0,1,1,3.5.136c-1.5,38.469-12.9,87.106-22.052,126.187-6.576,28.066-12.256,52.305-11.536,62.031,1.741,23.484-6.155,123-46.946,235.826-43.42,120.1-45.171,135.009-36.376,173.388,9.581,41.807,7.831,79.88-4.566,99.362-10.516,16.523-11.03,38.185-11.625,63.267q-.092,3.88-.2,7.836c10.615.624,25.373,6.583,32.341,15.9,2.994,4,4.184,8.247,3.492,12.38A17.567,17.567,0,0,1,309,1867.775a18.748,18.748,0,0,1-5.049,18.007c5.734,10.982,3.617,22.869-1.188,29.983-2.517,3.727-5.5,5.654-8.176,5.263-5-.714-10.136-6.567-20.365-18.226-2.15-2.45-4.457-5.081-7-7.936,3.81,12.288,1.89,21.645-1.516,26.458C263.84,1923.96,261.416,1925.418,258.954,1925.418Z" transform="translate(0 -62.145)" fill="#161615"/>
    <g id="Group_2113" data-name="Group 2113" transform="translate(302.804 822.006)">
      <path id="Path_804" data-name="Path 804" d="M466.734,3165.038a1.749,1.749,0,0,1-1.493-.833c-7.419-12.057-30.415-14.724-47.205-16.671-2.97-.345-5.775-.67-8.229-1.021-5.59-.8-9.165-2.6-10.93-5.511-1.3-2.151-1.52-4.8-.644-7.892a11.855,11.855,0,0,1-1.514-14.454,14.591,14.591,0,0,1,15.922-6.6c4.175-6.522,17.076-9.451,28.571-9,14.676-6.488,25.663-19.889,30.224-36.866-2.772-13.461-2.182-20.463,3.021-36.914,3.747-11.851,2.757-29.14,1.961-43.031-.31-5.416-.6-10.531-.6-14.836,0-39.656-19.614-121.184-40.38-207.5-20.111-83.595-40.907-170.034-44.865-223.415-5.489-74.041,10.944-151.6,20.762-197.947,4.492-21.2,7.737-36.516,6.876-41.709-3.78-22.8-8.412-57.4-5.006-94.357,1.587-17.238-10.034-59.377-24.747-112.726-18.288-66.311-43.334-157.127-56.889-250.4-12.395-85.3-13.375-144.6-3.384-204.69,10.454-62.875,33.979-128.561,63.647-207.9,55.234-147.711,40.552-219.026,26.353-287.993-2.393-11.626-4.868-23.647-6.961-35.823-8.229-47.88-15.5-72.773-20.8-90.948-7.086-24.273-11.363-38.925-11.032-82.868a1.75,1.75,0,0,1,1.751-1.738h.013a1.752,1.752,0,0,1,1.738,1.763c-.327,43.43,3.657,57.08,10.892,81.862,5.33,18.256,12.629,43.258,20.891,91.335,2.083,12.12,4.553,24.112,6.941,35.71,14.3,69.453,29.085,141.27-26.5,289.925-29.6,79.16-53.07,144.686-63.473,207.25-9.926,59.708-8.943,118.7,3.4,203.612,13.523,93.058,38.536,183.751,56.8,249.973,15.387,55.793,26.5,96.1,24.857,113.979-3.368,36.558,1.227,70.85,4.974,93.463.968,5.844-2.164,20.627-6.9,43.007-9.78,46.16-26.148,123.417-20.7,196.962,3.937,53.1,24.7,139.4,44.778,222.855,20.816,86.522,40.478,168.246,40.478,208.317,0,4.2.29,9.271.6,14.634.855,14.917,1.823,31.824-2.118,44.289-5.087,16.089-5.594,22.4-2.847,35.55a1.749,1.749,0,0,1-.02.8c-4.807,18.354-16.723,32.841-32.692,39.746a1.8,1.8,0,0,1-.778.142c-11.037-.519-23.9,2.414-26.319,8.227a1.752,1.752,0,0,1-2.171.988,11.133,11.133,0,0,0-13.243,4.661c-2.231,3.743-1.6,7.821,1.693,10.907a1.752,1.752,0,0,1,.454,1.859c-.895,2.544-.9,4.5,0,5.97,1.171,1.93,4.007,3.228,8.431,3.861,2.408.343,5.191.666,8.137,1.008,17.5,2.029,41.476,4.81,49.786,18.315a1.752,1.752,0,0,1-1.49,2.668Z" transform="translate(-321.399 -931.396)" fill="#161615"/>
      <path id="Path_805" data-name="Path 805" d="M553.061,3300.644H512.577c-9.843,0-18.567-4.3-23.336-11.5-4.753-7.18-5.205-16.241-1.271-25.513a1.751,1.751,0,0,1,3.224,1.368c-3.459,8.156-3.117,16.044.967,22.212,4.181,6.315,11.622,9.935,20.417,9.935h40.485c8.748,0,15.667-2.548,20.565-7.574,6.923-7.1,10.209-19.441,9.767-36.677-.333-12.975-3.022-24.493-5.394-34.655-3.056-13.087-5.694-24.39-2.664-35l.481-1.682c4.969-17.345,10.106-35.28.528-61.436-10.541-28.781-7.629-215.717,18.07-338.883,12.92-61.924,5.828-111.582-1.031-159.606-6.915-48.414-14.064-98.476.048-159.89,24.531-106.752,45.846-244.788,58.482-378.715,7.118-75.457,10.2-168.593,6.6-199.309a1.751,1.751,0,0,1,3.478-.408c3.626,30.912.545,124.392-6.592,200.045-12.648,134.073-33.991,272.276-58.555,379.172-13.966,60.779-7.179,108.3.006,158.609,6.9,48.323,14.037,98.291.992,160.815-26.961,129.218-27.506,311.581-18.21,336.964,9.971,27.226,4.674,45.719-.45,63.6l-.481,1.678c-2.779,9.738-.236,20.631,2.708,33.245,2.41,10.325,5.142,22.027,5.485,35.362.468,18.213-3.153,31.406-10.759,39.21C570.553,3297.74,562.789,3300.644,553.061,3300.644Z" transform="translate(-341.795 -1049.652)" fill="#161615"/>
    </g>
    <path id="Path_806" data-name="Path 806" d="M1066.015,1925.418c-2.462,0-4.886-1.459-6.751-4.1-3.406-4.813-5.325-14.169-1.517-26.458-2.544,2.855-4.852,5.486-7,7.936-10.228,11.659-15.364,17.512-20.366,18.226-2.672.393-5.657-1.535-8.175-5.263-4.805-7.114-6.923-19-1.188-29.983a18.748,18.748,0,0,1-5.049-18.007,17.568,17.568,0,0,1,10.363-12.124c-.693-4.134.5-8.379,3.493-12.38,6.968-9.313,21.725-15.272,32.341-15.9q-.112-3.953-.2-7.836c-.6-25.082-1.109-46.744-11.625-63.267-12.4-19.482-14.148-57.555-4.567-99.362,8.8-38.379,7.044-53.288-36.375-173.388-40.791-112.828-48.687-212.343-46.947-235.826.721-9.731-5.008-34.272-11.642-62.689-9.221-39.495-20.7-88.648-22.195-127.1a1.752,1.752,0,0,1,1.682-1.819,1.723,1.723,0,0,1,1.818,1.682c1.486,38.121,12.919,87.094,22.105,126.444,6.976,29.879,12.486,53.479,11.725,63.743-1.725,23.285,6.151,122.087,46.747,234.377,21.134,58.455,32.084,90.437,37.153,114.092,5.436,25.373,3.964,41.108-.657,61.268-9.378,40.928-7.8,77.981,4.108,96.7,11.039,17.346,11.589,40.525,12.171,65.064.074,3.15.151,6.341.248,9.563a1.753,1.753,0,0,1-1.75,1.8c-9.878,0-24.828,5.845-31.338,14.546-2.753,3.677-3.61,7.369-2.551,10.97a1.753,1.753,0,0,1-1.255,2.193c-4.462,1.116-8.177,5.084-9.461,10.11-1.432,5.6.4,11.266,5.018,15.533a1.751,1.751,0,0,1,.328,2.164,26.431,26.431,0,0,0,.4,27.466c1.88,2.782,3.788,3.9,4.778,3.757,3.719-.531,9.18-6.757,18.228-17.069,3.891-4.435,8.3-9.462,13.695-15.347a1.752,1.752,0,0,1,2.858,1.967c-7.243,14.484-6.5,26.6-2.544,32.188,1.29,1.824,2.825,2.771,4.231,2.594,4.782-.6,23.644-18.316,32.708-26.831,3.2-3,5.722-5.375,7.144-6.594,5.862-5.026,30.772-37.58,33.313-45.2,1.885-5.657,3.838-29.082,5.406-47.905.523-6.278,1.017-12.209,1.452-16.772.39-4.086.922-8.119,1.437-12.019,1.768-13.4,3.295-24.964-1.672-31.587-6.512-8.684-40.773-86.984-43.143-115.419-.783-9.4-.379-30.229.132-56.6,1.012-52.193,2.542-131.066-3.6-197.861-6.835-74.315-21.12-109.172-29.656-130-3.082-7.52-5.517-13.461-6.747-19-2.593-11.669-2.172-61.338-1.636-124.22.42-49.594.9-105.805-.139-152l-.177-7.86c-2.136-95.389-2.411-107.645-12.79-151.4-7.707-32.492-20.121-52.985-40.255-66.448-19.03-12.724-44.012-18.777-75.64-26.439l-5.136-1.245c-31.792-7.725-68.988-20.786-102.051-35.834-15.119-6.882-50.286-23.813-50.286-32.378V553.459a1.751,1.751,0,1,1,3.5,0v64.824c0,2.8,13.095,13.2,48.234,29.191,32.871,14.962,69.84,27.944,101.428,35.619l5.133,1.245c63.4,15.36,101.675,24.631,118.48,95.482,10.464,44.116,10.739,56.415,12.883,152.132l.177,7.859c1.038,46.245.56,102.485.139,152.1-.51,60.179-.953,112.152,1.553,123.431,1.166,5.246,3.55,11.064,6.569,18.43,8.61,21.007,23.02,56.168,29.9,131.006,6.16,66.988,4.628,145.979,3.614,198.249-.51,26.272-.911,47.023-.144,56.243,2.333,28,36.045,105.065,42.455,113.608,5.824,7.767,4.211,19.992,2.342,34.147-.51,3.869-1.038,7.87-1.422,11.892-.432,4.544-.925,10.465-1.448,16.733-1.666,20-3.555,42.665-5.573,48.721-2.736,8.208-28.15,41.435-34.356,46.755-1.362,1.167-3.862,3.515-7.026,6.487-15.153,14.237-29.209,27.072-34.671,27.754A6.179,6.179,0,0,1,1066.015,1925.418Z" transform="translate(-75.039 -62.145)" fill="#161615"/>
    <path id="Path_807" data-name="Path 807" d="M659.527,503.325c-69.995,0-122.417-21.528-155.809-63.985-32.216-40.962-38.979-91.276-38.979-126.273,0-93.89,51.94-190.643,102.157-229.941,19.953-15.615,39.024-21.892,55.208-18.18,33.4-18.313,70.153-16.749,106.345,4.537C763.039,89.828,795.74,127.2,820.528,174.7c23.848,45.707,37.525,96.139,37.525,138.363,0,28.365-5.309,82.487-40.865,126.286C782.726,481.8,729.681,503.325,659.527,503.325ZM612.726,67.41c-13.176,0-28.079,6.271-43.672,18.474C519.5,124.666,468.24,220.245,468.24,313.068c0,34.443,6.632,83.933,38.23,124.107,32.7,41.57,84.19,62.648,153.056,62.648,69.048,0,121.178-21.088,154.942-62.678,34.875-42.958,40.082-96.178,40.082-124.078,0-41.678-13.533-91.52-37.128-136.744C792.935,129.389,760.706,92.519,726.672,72.5c-35.278-20.747-71.056-22.19-103.465-4.165l-.6.335-.67-.165A38.215,38.215,0,0,0,612.726,67.41Z" transform="translate(-36.43 0)" fill="#161615"/>
    <g id="Group_2114" data-name="Group 2114" transform="translate(625.541 822.006)">
      <path id="Path_808" data-name="Path 808" d="M889.475,3165.038a1.751,1.751,0,0,1-1.489-2.668c8.309-13.5,32.281-16.286,49.784-18.315,2.946-.342,5.73-.665,8.138-1.008,4.424-.633,7.26-1.932,8.431-3.861.893-1.473.892-3.426,0-5.97a1.752,1.752,0,0,1,.454-1.859c3.292-3.085,3.925-7.163,1.694-10.907a11.135,11.135,0,0,0-13.244-4.661,1.752,1.752,0,0,1-2.171-.988c-2.422-5.812-15.279-8.742-26.318-8.227a1.81,1.81,0,0,1-.777-.142c-15.97-6.906-27.885-21.393-32.692-39.746a1.75,1.75,0,0,1-.02-.8c2.746-13.149,2.24-19.461-2.847-35.55-3.941-12.465-2.973-29.373-2.119-44.29.307-5.364.6-10.43.6-14.633,0-40.071,19.662-121.795,40.478-208.317,20.079-83.459,40.843-169.758,44.779-222.855,5.45-73.544-10.917-150.8-20.7-196.962-4.741-22.38-7.873-37.164-6.906-43.007,3.749-22.609,8.344-56.9,4.975-93.463-1.647-17.874,9.47-58.184,24.857-113.977,18.263-66.222,43.276-156.916,56.8-249.975,12.339-84.914,13.324-143.9,3.4-203.612-10.4-62.565-33.872-128.09-63.473-207.25-55.587-148.655-40.8-220.473-26.5-289.925,2.388-11.6,4.857-23.59,6.94-35.71,8.264-48.076,15.562-73.079,20.892-91.335,7.235-24.781,11.22-38.432,10.893-81.862a1.752,1.752,0,0,1,1.739-1.763h.012a1.75,1.75,0,0,1,1.751,1.738c.33,43.944-3.946,58.595-11.033,82.869-5.306,18.174-12.573,43.067-20.8,90.947-2.094,12.176-4.569,24.2-6.962,35.823-14.2,68.967-28.881,140.282,26.353,287.993,29.669,79.34,53.193,145.026,63.648,207.9,9.991,60.09,9.01,119.392-3.385,204.69-13.555,93.275-38.6,184.092-56.889,250.4-14.713,53.349-26.334,95.488-24.747,112.725,3.407,36.969-1.225,71.557-5.006,94.357-.861,5.192,2.384,20.509,6.876,41.709,9.819,46.343,26.251,123.906,20.764,197.947-3.958,53.381-24.755,139.821-44.866,223.415-20.767,86.314-40.381,167.842-40.381,207.5,0,4.3-.292,9.418-.6,14.834-.795,13.893-1.784,31.182,1.962,43.033,5.2,16.451,5.792,23.452,3.022,36.914,4.56,16.976,15.546,30.378,30.223,36.866,11.494-.456,24.4,2.476,28.57,9a14.586,14.586,0,0,1,15.924,6.6,11.857,11.857,0,0,1-1.516,14.454c.876,3.09.661,5.741-.643,7.892-1.765,2.909-5.34,4.712-10.93,5.511-2.453.35-5.26.676-8.229,1.021-16.791,1.947-39.787,4.614-47.205,16.671A1.749,1.749,0,0,1,889.475,3165.038Z" transform="translate(-713.087 -931.396)" fill="#161615"/>
      <path id="Path_809" data-name="Path 809" d="M840.943,3300.644H800.458c-9.728,0-17.491-2.9-23.073-8.631-7.606-7.8-11.227-21-10.76-39.21.342-13.335,3.074-25.038,5.485-35.363,2.945-12.612,5.488-23.505,2.708-33.244l-.481-1.678c-5.124-17.884-10.421-36.378-.45-63.6,9.3-25.384,8.751-207.746-18.21-336.964-13.045-62.524-5.909-112.491.992-160.814,7.185-50.311,13.971-97.832.005-158.61-24.564-106.9-45.907-245.1-58.555-379.172-7.137-75.654-10.218-169.134-6.592-200.046a1.751,1.751,0,1,1,3.478.408c-3.6,30.716-.517,123.852,6.6,199.309,12.634,133.927,33.95,271.963,58.481,378.715,14.113,61.414,6.963,111.478.049,159.891-6.858,48.023-13.95,97.682-1.031,159.6,25.7,123.166,28.611,310.1,18.07,338.883-9.579,26.156-4.44,44.091.529,61.436l.48,1.682c3.029,10.611.391,21.913-2.665,35-2.372,10.163-5.062,21.681-5.394,34.656-.441,17.236,2.845,29.576,9.768,36.678,4.9,5.025,11.817,7.573,20.564,7.573h40.484c8.794,0,16.236-3.62,20.417-9.935,4.084-6.168,4.427-14.056.968-22.212a1.751,1.751,0,0,1,3.224-1.368c3.934,9.272,3.482,18.333-1.271,25.513C859.51,3296.343,850.786,3300.644,840.943,3300.644Z" transform="translate(-690.001 -1049.651)" fill="#161615"/>
    </g>
    <path id="Path_810" data-name="Path 810" d="M689.094,1865.66a1.751,1.751,0,0,1-1.751-1.751v-29.93a1.751,1.751,0,1,1,3.5,0v29.93A1.751,1.751,0,0,1,689.094,1865.66Z" transform="translate(-64.129 -221.482)" fill="#161615"/>
    <g id="Group_2115" data-name="Group 2115" transform="translate(357.748 1631.703)">
      <path id="Path_811" data-name="Path 811" d="M824.759,1936.109a164.322,164.322,0,0,1-19.332-1.151c-35.039-4.147-65.062-13.6-86.82-27.34-20.161-12.731-31.264-27.968-31.264-42.906a1.751,1.751,0,0,1,3.5,0c0,13.493,10.8,28.052,29.632,39.943,21.32,13.463,50.838,22.739,85.362,26.824a153.95,153.95,0,0,0,94.916-18.956c24.6-13.993,44.091-34.647,52.147-55.247a1.751,1.751,0,0,1,3.261,1.276c-8.462,21.642-28.027,42.424-53.677,57.016A156.99,156.99,0,0,1,824.759,1936.109Z" transform="translate(-421.878 -1856.164)" fill="#161615"/>
      <path id="Path_812" data-name="Path 812" d="M515.676,1936.109a156.968,156.968,0,0,1-77.729-20.54c-25.649-14.592-45.213-35.374-53.676-57.016a1.751,1.751,0,1,1,3.261-1.276c8.057,20.6,27.55,41.254,52.147,55.247a153.908,153.908,0,0,0,94.916,18.956c34.525-4.085,64.043-13.361,85.362-26.824,18.832-11.891,29.632-26.45,29.632-39.943a1.751,1.751,0,0,1,3.5,0c0,14.937-11.1,30.175-31.264,42.906-21.758,13.739-51.781,23.193-86.82,27.34A164.311,164.311,0,0,1,515.676,1936.109Z" transform="translate(-384.151 -1856.164)" fill="#161615"/>
    </g>
  </g>
</svg>
