<svg xmlns="http://www.w3.org/2000/svg" width="906.994" height="3099.782" viewBox="0 0 906.994 3099.782">
  <g id="Group_2092" data-name="Group 2092" transform="translate(-171.467 -51.777)">
    <g id="Group_2087" data-name="Group 2087" transform="translate(428.308 52.278)">
      <path id="Path_732" data-name="Path 732" d="M684.456,461.868c-7.712,0-10.833-2.257-12.691-4.225-4.831-5.116-7.763-4.9-10.833-4.13a9.272,9.272,0,0,1-8.061-1.6c-1.4-1.166-3.026-3.385-2.786-7.336a1.751,1.751,0,0,1,3.5.212,5.032,5.032,0,0,0,1.529,4.43,5.81,5.81,0,0,0,4.974.9c4.559-1.142,8.725-.7,14.229,5.124,1.461,1.545,3.808,3.127,10.144,3.127s8.683-1.581,10.143-3.127c5.5-5.829,9.669-6.264,14.229-5.124a5.814,5.814,0,0,0,4.974-.9,5.032,5.032,0,0,0,1.529-4.43,1.751,1.751,0,0,1,3.5-.212c.24,3.951-1.382,6.17-2.786,7.336a9.269,9.269,0,0,1-8.061,1.6c-3.069-.769-6-.986-10.833,4.13C695.288,459.611,692.167,461.868,684.456,461.868Z" transform="translate(-487.798 -100.888)" fill="#161615" stroke="#707070" stroke-width="1"/>
      <path id="Path_733" data-name="Path 733" d="M602.433,361.612c-13.19,0-24.079-6.152-28.88-16.821a1.751,1.751,0,1,1,3.194-1.437c5.093,11.319,18.19,16.827,33.365,14.034,14.949-2.755,24.764.5,25.173.644a1.751,1.751,0,0,1-1.128,3.316c-.107-.036-9.437-3.088-23.411-.516A45.984,45.984,0,0,1,602.433,361.612Z" transform="translate(-478.259 -88.369)" fill="#161615" stroke="#707070" stroke-width="1"/>
      <path id="Path_734" data-name="Path 734" d="M566.528,348.434a.877.877,0,0,1-.809-1.209c1.555-3.776,7.5-3.819,7.75-3.819a.876.876,0,0,1,0,1.751c-1.393,0-5.211.5-6.131,2.735A.879.879,0,0,1,566.528,348.434Z" transform="translate(-477.295 -88.504)" fill="#161615" stroke="#707070" stroke-width="1"/>
      <path id="Path_735" data-name="Path 735" d="M569.962,353.588a.875.875,0,0,1-.81-1.209c1.555-3.775,7.5-3.818,7.751-3.818a.876.876,0,0,1,0,1.751c-1.394,0-5.212.5-6.132,2.734A.876.876,0,0,1,569.962,353.588Z" transform="translate(-477.722 -89.145)" fill="#161615" stroke="#707070" stroke-width="1"/>
      <path id="Path_736" data-name="Path 736" d="M574.145,358.872a.875.875,0,0,1-.809-1.209c1.555-3.775,7.5-3.819,7.75-3.819a.876.876,0,0,1,0,1.751c-1.393,0-5.211.5-6.132,2.735A.876.876,0,0,1,574.145,358.872Z" transform="translate(-478.243 -89.803)" fill="#161615" stroke="#707070" stroke-width="1"/>
      <path id="Path_737" data-name="Path 737" d="M767.291,361.612a45.9,45.9,0,0,1-8.314-.78c-13.985-2.575-23.319.484-23.411.516a1.751,1.751,0,0,1-1.128-3.316c.411-.141,10.226-3.4,25.173-.644,15.174,2.795,28.271-2.713,33.365-14.034a1.751,1.751,0,1,1,3.194,1.437C791.37,355.459,780.479,361.611,767.291,361.612Z" transform="translate(-498.15 -88.369)" fill="#161615" stroke="#707070" stroke-width="1"/>
      <path id="Path_738" data-name="Path 738" d="M810.924,348.434a.877.877,0,0,1-.811-.542c-1.1-2.662-6.08-2.735-6.13-2.735a.876.876,0,1,1,0-1.751c.252,0,6.195.043,7.75,3.819a.877.877,0,0,1-.809,1.209Z" transform="translate(-506.842 -88.504)" fill="#161615" stroke="#707070" stroke-width="1"/>
      <path id="Path_739" data-name="Path 739" d="M807.49,353.588a.876.876,0,0,1-.81-.542c-.92-2.234-4.738-2.731-6.132-2.734a.876.876,0,0,1,0-1.751c.252,0,6.195.044,7.75,3.818a.875.875,0,0,1-.809,1.209Z" transform="translate(-506.415 -89.145)" fill="#161615" stroke="#707070" stroke-width="1"/>
      <path id="Path_740" data-name="Path 740" d="M803.307,358.872a.876.876,0,0,1-.81-.542c-.92-2.234-4.739-2.732-6.132-2.735a.876.876,0,0,1,0-1.751c.252,0,6.195.044,7.75,3.819a.875.875,0,0,1-.809,1.209Z" transform="translate(-505.894 -89.803)" fill="#161615" stroke="#707070" stroke-width="1"/>
      <path id="Path_741" data-name="Path 741" d="M642.656,518.988A20.166,20.166,0,0,1,633,516.875a1.751,1.751,0,1,1,1.683-3.071c5.689,3.118,16,1.523,22.813-1.559A24.684,24.684,0,0,1,675.8,511a24.561,24.561,0,0,0,12.838,0,24.682,24.682,0,0,1,18.3,1.247c6.815,3.083,17.126,4.676,22.814,1.559a1.751,1.751,0,1,1,1.683,3.071c-7.55,4.138-19.649,1.405-25.94-1.439a21.089,21.089,0,0,0-15.841-1.088,28.01,28.01,0,0,1-14.879,0,21.11,21.11,0,0,0-15.841,1.088A42.5,42.5,0,0,1,642.656,518.988Z" transform="translate(-485.562 -109.209)" fill="#161615" stroke="#707070" stroke-width="1"/>
      <path id="Path_742" data-name="Path 742" d="M665.482,539.419c-5.031,0-10.393-1.512-14.133-6.633a1.751,1.751,0,1,1,2.827-2.065c3.863,5.288,10.729,6.6,19.856,3.793,4.624-1.42,16.886-1.42,21.509,0,9.128,2.807,15.994,1.494,19.857-3.793a1.751,1.751,0,1,1,2.828,2.065c-6.42,8.785-17.614,6.949-23.714,5.076-3.908-1.2-15.542-1.2-19.452,0A33.361,33.361,0,0,1,665.482,539.419Z" transform="translate(-487.916 -111.722)" fill="#161615" stroke="#707070" stroke-width="1"/>
      <path id="Path_743" data-name="Path 743" d="M626.727,312.583a31.954,31.954,0,0,1-10.262-2.06c-24.687-8.626-35.716-11.689-48.443-11.689-8.1,0-14.56,2.668-16.264,3.885a.875.875,0,1,1-1.017-1.425c1.924-1.375,8.679-4.211,17.281-4.211,13.78,0,26.091,3.775,49.02,11.786,7.242,2.531,12.763,2.609,15.545.216,2.346-2.016,2.281-5.41,1.813-7.9a.876.876,0,0,1,1.721-.323c.792,4.224-.036,7.527-2.393,9.554A10.456,10.456,0,0,1,626.727,312.583Z" transform="translate(-475.394 -82.74)" fill="#161615" stroke="#707070" stroke-width="1"/>
      <path id="Path_744" data-name="Path 744" d="M739.732,312.583a10.45,10.45,0,0,1-7-2.17c-2.358-2.027-3.185-5.33-2.393-9.554a.876.876,0,0,1,1.721.323c-.468,2.493-.532,5.887,1.813,7.9,2.782,2.392,8.3,2.315,15.544-.216,22.93-8.011,35.242-11.786,49.021-11.786,8.6,0,15.357,2.837,17.281,4.211a.875.875,0,1,1-1.017,1.425c-1.7-1.217-8.165-3.885-16.264-3.885-12.726,0-23.756,3.063-48.443,11.689A31.968,31.968,0,0,1,739.732,312.583Z" transform="translate(-497.751 -82.74)" fill="#161615" stroke="#707070" stroke-width="1"/>
      <path id="Path_745" data-name="Path 745" d="M666.206,553.13c-.333,0-.664,0-1-.009-18.355-.331-39.139-9.551-60.1-26.66-17.394-14.2-34.4-33.333-47.888-53.885-21.515-32.785-28.9-63.987-31.321-78.5a10.737,10.737,0,0,1-10.917,1.073c-6.728-3.081-11.082-12.535-10.352-22.479.65-8.85.471-19.115-.579-33.288-1.176-15.882-2.984-25.965-7.82-48.2-1.661-7.636.32-14.4,5.3-18.1,3.434-2.552,7.592-3.013,10.852-1.2,1.67.927,3.2,2.776,4.593,5.527,1.431-28.607,9.686-46.952,25.663-57.345,15.775-10.263,37.268-11.507,60.022-12.824,34.008-1.968,72.553-4.2,100.129-37.807a1.741,1.741,0,0,1,1.652-.615c57.786,9.978,69.512,47.692,78.935,78,6.182,19.881,11.1,35.7,27.323,38.078,2.024-7.031,4.513-11.406,7.406-13.013h0c3.259-1.812,7.418-1.353,10.852,1.2,4.978,3.7,6.958,10.464,5.3,18.1-4.835,22.233-6.643,32.316-7.82,48.2-1.049,14.173-1.228,24.438-.578,33.288.73,9.945-3.624,19.4-10.353,22.479a10.736,10.736,0,0,1-10.917-1.073c-2.42,14.514-9.805,45.716-31.32,78.5C748.786,509.877,706.182,553.129,666.206,553.13ZM527.155,389.01a1.75,1.75,0,0,1,1.733,1.5c1.805,12.525,8.465,45.408,31.259,80.142,25.477,38.821,67.864,78.292,105.128,78.965,17.4.327,37.432-8.443,57.88-25.328,16.869-13.93,33.625-32.978,47.183-53.637,22.794-34.735,29.454-67.617,31.259-80.142a1.751,1.751,0,0,1,2.972-.988c3.042,3.041,6.319,3.886,9.476,2.44,5.358-2.453,8.934-10.638,8.317-19.038-.662-9.028-.484-19.453.579-33.8,1.193-16.095,3.016-26.273,7.891-48.686,1.36-6.254-.122-11.691-3.964-14.545-2.315-1.72-5.021-2.083-7.063-.95-1.252.7-3.713,3.221-6.126,12.317a1.756,1.756,0,0,1-1.856,1.294c-19.709-1.846-25.308-19.85-31.79-40.7-9.085-29.217-20.375-65.534-75.191-75.41-28.494,34.039-67.518,36.3-101.978,38.292-22.277,1.289-43.32,2.508-58.315,12.262-16.576,10.784-24.3,31.059-24.3,63.811a1.751,1.751,0,0,1-3.444.449c-2.413-9.1-4.875-11.621-6.127-12.317-2.041-1.132-4.747-.77-7.062.95-3.842,2.853-5.324,8.291-3.964,14.545,4.875,22.415,6.7,32.593,7.891,48.686,1.063,14.35,1.241,24.775.578,33.8-.616,8.4,2.959,16.585,8.317,19.038,3.158,1.444,6.435.6,9.477-2.44A1.751,1.751,0,0,1,527.155,389.01Z" transform="translate(-468.585 -66.776)" fill="#161615" stroke="#707070" stroke-width="1"/>
      <path id="Path_746" data-name="Path 746" d="M755.192,477.95a1.751,1.751,0,0,1,0-3.5c25.811,0,50.651-17.679,69.945-49.78,18.693-31.1,29.414-71.777,29.414-111.6,0-92.822-51.258-188.4-100.813-227.183C734.387,70.742,716.1,64.73,700.855,68.508l-.669.165-.6-.335C667.175,50.316,631.4,51.754,596.118,72.5c-34.032,20.015-66.262,56.887-90.75,103.821-23.595,45.224-37.128,95.066-37.128,136.743,0,39.809,10.719,80.476,29.409,111.575,19.288,32.1,44.114,49.771,69.9,49.771a1.751,1.751,0,1,1,0,3.5c-27.068,0-52.96-18.278-72.906-51.469-19.007-31.628-29.909-72.953-29.909-113.379,0-42.224,13.677-92.656,37.525-138.363,24.787-47.509,57.489-84.877,92.08-105.22,36.193-21.284,72.95-22.85,106.345-4.537,16.188-3.706,35.257,2.567,55.208,18.18,50.216,39.3,102.157,136.051,102.157,229.941,0,40.441-10.9,81.775-29.915,113.405C808.186,459.668,782.28,477.95,755.192,477.95Z" transform="translate(-464.738 -52.278)" fill="#161615" stroke="#707070" stroke-width="1"/>
    </g>
    <path id="Path_747" data-name="Path 747" d="M682.539,1878.843c-19.421,0-37.571-6.091-47.368-15.9a1.751,1.751,0,1,1,2.478-2.476c9.164,9.172,26.365,14.871,44.89,14.871s35.726-5.7,44.889-14.871a1.752,1.752,0,0,1,2.478,2.476C720.11,1872.752,701.96,1878.843,682.539,1878.843Z" transform="translate(-57.574 -224.934)" fill="#161615" stroke="#707070" stroke-width="1"/>
    <g id="Group_2090" data-name="Group 2090" transform="translate(171.965 495.153)">
      <g id="Group_2088" data-name="Group 2088">
        <path id="Path_748" data-name="Path 748" d="M258.954,1926.212a6.178,6.178,0,0,1-.773-.049c-5.462-.682-19.517-13.517-34.671-27.754-3.163-2.972-5.663-5.32-7.026-6.487-6.205-5.319-31.618-38.547-34.355-46.755-2.019-6.056-3.908-28.725-5.575-48.725-.522-6.266-1.016-12.185-1.447-16.729-.383-4.022-.911-8.024-1.422-11.893-1.868-14.155-3.482-26.379,2.342-34.146,6.408-8.544,40.121-85.614,42.454-113.608.769-9.22.366-29.972-.143-56.246-1.014-52.27-2.545-131.26,3.614-198.247,6.881-74.836,21.291-110,29.9-131,3.019-7.367,5.4-13.185,6.569-18.431,2.507-11.278,2.065-63.255,1.554-123.438-.422-49.617-.9-105.854.139-152.1l.177-7.861c2.144-95.716,2.42-108.014,12.883-152.13,16.8-70.849,55.075-80.121,118.479-95.482l5.133-1.245c31.588-7.675,68.556-20.657,101.427-35.619,35.139-15.994,48.234-26.392,48.234-29.191V559.844a1.751,1.751,0,1,1,3.5,0v59.233c0,8.566-35.165,25.5-50.285,32.378C466.6,666.5,429.409,679.565,397.616,687.29l-5.136,1.245c-31.627,7.662-56.609,13.715-75.639,26.439-20.135,13.463-32.549,33.955-40.256,66.448-10.378,43.757-10.653,56.012-12.789,151.4l-.177,7.862c-1.038,46.189-.56,102.4-.139,151.99.535,62.886.957,112.557-1.636,124.226-1.231,5.537-3.665,11.478-6.748,19-8.535,20.826-22.821,55.683-29.655,130-6.141,66.794-4.612,145.666-3.6,197.857.511,26.374.915,47.205.131,56.6-2.369,28.432-36.628,106.735-43.142,115.419-4.967,6.622-3.44,18.191-1.672,31.586.515,3.9,1.047,7.934,1.437,12.02.434,4.563.928,10.492,1.451,16.769,1.569,18.824,3.522,42.25,5.408,47.908,2.54,7.623,27.45,40.178,33.312,45.2,1.422,1.219,3.947,3.591,7.144,6.594,9.064,8.515,27.924,26.234,32.708,26.831,1.394.17,2.94-.77,4.231-2.594,3.951-5.584,4.7-17.7-2.544-32.188a1.751,1.751,0,0,1,2.857-1.967c5.4,5.885,9.805,10.913,13.7,15.347,9.047,10.312,14.508,16.539,18.227,17.069.987.138,2.9-.974,4.778-3.757a26.429,26.429,0,0,0,.4-27.466,1.751,1.751,0,0,1,.328-2.164c4.621-4.267,6.451-9.928,5.018-15.533-1.284-5.026-5-8.994-9.461-10.11a1.752,1.752,0,0,1-1.255-2.193c1.059-3.6.2-7.293-2.551-10.971-6.511-8.7-21.46-14.545-31.338-14.545a1.753,1.753,0,0,1-1.75-1.8c.1-3.221.173-6.41.248-9.559.582-24.541,1.132-47.721,12.17-65.068,11.913-18.72,13.487-55.773,4.108-96.7-9.728-42.451-3.944-63.5,36.5-175.359,40.6-112.291,48.471-211.092,46.747-234.377-.76-10.264,4.75-33.864,11.725-63.741,9.187-39.352,20.621-88.324,22.106-126.446a1.751,1.751,0,1,1,3.5.137c-1.5,38.456-12.974,87.61-22.2,127.105-6.633,28.416-12.363,52.956-11.642,62.687,1.739,23.484-6.156,123-46.947,235.826-43.42,120.1-45.171,135.008-36.375,173.388,9.58,41.807,7.83,79.88-4.568,99.362-10.516,16.524-11.029,38.187-11.624,63.27q-.092,3.878-.2,7.833c10.616.624,25.373,6.583,32.342,15.9,2.994,4,4.184,8.248,3.492,12.381A17.567,17.567,0,0,1,309,1868.568a18.746,18.746,0,0,1-5.049,18.007c5.735,10.982,3.617,22.869-1.187,29.982-2.517,3.728-5.506,5.652-8.175,5.264-5-.714-10.136-6.566-20.365-18.226-2.15-2.45-4.458-5.08-7-7.936,3.81,12.288,1.889,21.645-1.516,26.458C263.84,1924.754,261.416,1926.212,258.954,1926.212Z" transform="translate(-171.965 -558.093)" fill="#161615" stroke="#707070" stroke-width="1"/>
        <path id="Path_749" data-name="Path 749" d="M599.67,713.851a1.788,1.788,0,0,1-.523-.081c-.313-.1-31.5-9.84-45.927-13.865a108.308,108.308,0,0,0-28.158-4.274,1.751,1.751,0,1,1,0-3.5,111.953,111.953,0,0,1,29.1,4.4c14.475,4.04,45.717,13.8,46.031,13.9a1.752,1.752,0,0,1-.523,3.423Z" transform="translate(-215.684 -574.772)" fill="#161615" stroke="#707070" stroke-width="1"/>
        <path id="Path_750" data-name="Path 750" d="M502.426,1129.063a150.329,150.329,0,0,1-24.42-2.073c-31.075-5.108-53.713-19.1-67.285-41.583-20.535-34.021-14.52-77.583-7.727-97.96,3.959-11.879,6.2-29.76,5.857-46.665-.372-18.1-3.5-28.041-6.249-29.612a1.887,1.887,0,0,1,1.872-3.276c6.827,3.9,7.973,24.245,8.149,32.812.361,17.568-1.9,35.488-6.048,47.936-6.588,19.762-12.447,61.972,7.378,94.816,12.975,21.5,34.731,34.89,64.666,39.81,59.182,9.725,91.556-18.109,112.978-36.531,9.748-8.382,17.447-15,24.839-15.824a1.886,1.886,0,1,1,.416,3.75c-6.231.693-13.541,6.977-22.794,14.935C575.233,1105.782,548.159,1129.063,502.426,1129.063Z" transform="translate(-199.917 -601.589)" fill="#161615" stroke="#707070" stroke-width="1"/>
        <path id="Path_751" data-name="Path 751" d="M458.485,3284.611a29.465,29.465,0,0,1-3.655-.229c-9.355-1.166-16.807-6.468-20.045-14.073a24.676,24.676,0,0,1-18.535,4.389,17.4,17.4,0,0,1-12.257-8.9c-4.6,3.782-12.569,5.236-18.884,3.131-4.349-1.448-7.263-4.362-8.347-8.217-5.744,4-12.221,2.651-16.739-.293-3.174-2.069-6.024-5.419-6.242-8.368-3.48-1.174-7.338-3.7-9.095-7.811-1.773-4.148-1.081-8.951,2.054-14.274,3.154-5.351,15.056-12.191,30.127-20.852,22.575-12.971,50.669-29.116,63.646-47.9,22.815-33.031,35.022-90.31,35.3-165.646.148-39.794-19.593-121.7-40.494-208.408-20.063-83.239-40.809-169.314-44.753-222.5-5.488-74.041,10.945-151.6,20.763-197.947,4.492-21.2,7.737-36.516,6.876-41.709-3.78-22.8-8.412-57.393-5.007-94.357,1.588-17.238-10.033-59.377-24.746-112.726-18.288-66.31-43.334-157.126-56.888-250.4-12.4-85.3-13.376-144.6-3.385-204.691,10.453-62.875,33.979-128.561,63.647-207.9,49.949-133.576,39.011-207.248,29.361-272.247-2.815-18.964-5.474-36.877-6.444-55.26a1.751,1.751,0,1,1,3.5-.185c.961,18.218,3.608,36.051,6.411,54.93,9.712,65.418,20.719,139.566-29.546,273.987-29.6,79.16-53.07,144.685-63.473,207.25-9.927,59.708-8.943,118.7,3.4,203.612,13.522,93.058,38.535,183.752,56.8,249.974,15.387,55.793,26.5,96.1,24.858,113.978-3.368,36.562,1.225,70.852,4.973,93.463.968,5.844-2.164,20.627-6.9,43.007-9.78,46.16-26.148,123.418-20.7,196.962,3.922,52.9,24.634,138.834,44.664,221.937,20.951,86.922,40.741,169.025,40.591,209.241-.283,76.046-12.7,134.009-35.923,167.623-13.427,19.441-41.9,35.8-64.782,48.952-14.042,8.069-26.171,15.038-28.854,19.594-2.539,4.309-3.162,8.05-1.851,11.118,1.5,3.518,5.349,5.544,8.184,6.209a1.75,1.75,0,0,1,1.218,2.374c-.347.841,1.146,3.77,4.626,6.038,1.953,1.274,8.8,4.933,14.843-1.391a1.752,1.752,0,0,1,3.017,1.193c.053,5.126,3.522,7.354,6.421,8.32,5.907,1.969,13.793.163,16.874-3.862a1.751,1.751,0,0,1,3,.384c2.122,5.029,5.861,8.186,10.812,9.127,6.766,1.287,14.027-1.7,17.423-5.169a1.752,1.752,0,0,1,2.935.743c2.59,9.045,11,13.2,18,14.074,8.686,1.088,16.642-2.24,20.267-8.469,3.415-5.868,10.842-8.129,18.7-10.522,13.464-4.1,28.724-8.743,28.813-32.738.081-21.737,12.185-32.471,22.865-41.941,9.346-8.288,17.417-15.447,17.083-28.438-.332-12.976-3.022-24.494-5.393-34.656-3.056-13.088-5.695-24.39-2.665-35l.482-1.682c4.968-17.346,10.107-35.28.528-61.436-10.541-28.781-7.629-215.717,18.069-338.882,12.921-61.923,5.829-111.581-1.03-159.605-6.914-48.414-14.064-98.476.048-159.89,24.531-106.752,45.847-244.788,58.482-378.715,7.119-75.459,10.2-168.594,6.6-199.309a1.751,1.751,0,0,1,3.478-.408c3.627,30.91.546,124.39-6.592,200.045-12.648,134.073-33.991,272.276-58.555,379.172-13.966,60.778-7.18,108.3.006,158.609,6.9,48.323,14.037,98.292.991,160.816-26.96,129.218-27.505,311.58-18.209,336.964,9.971,27.227,4.673,45.719-.45,63.6l-.481,1.678c-2.78,9.738-.236,20.631,2.708,33.243,2.41,10.326,5.143,22.029,5.485,35.363.375,14.62-8.678,22.648-18.261,31.147-10.625,9.423-21.611,19.166-21.686,39.336-.1,26.579-17.4,31.844-31.3,36.074-7.5,2.281-13.974,4.253-16.7,8.933C474.755,3280.731,467.114,3284.61,458.485,3284.611Z" transform="translate(-190.56 -628.706)" fill="#161615" stroke="#707070" stroke-width="1"/>
      </g>
      <g id="Group_2089" data-name="Group 2089" transform="translate(453.436)">
        <path id="Path_752" data-name="Path 752" d="M1066.014,1926.212c-2.461,0-4.886-1.459-6.751-4.095-3.406-4.813-5.325-14.169-1.516-26.458-2.544,2.855-4.852,5.485-7,7.935-10.23,11.66-15.364,17.513-20.366,18.227-2.682.393-5.658-1.535-8.176-5.264-4.8-7.113-6.921-19-1.186-29.982a18.746,18.746,0,0,1-5.049-18.007,17.568,17.568,0,0,1,10.363-12.124c-.692-4.134.5-8.38,3.493-12.38,6.968-9.312,21.725-15.272,32.341-15.9q-.112-3.953-.2-7.833c-.6-25.083-1.109-46.747-11.625-63.27-12.4-19.482-14.147-57.555-4.566-99.362,8.8-38.379,7.044-53.288-36.376-173.388-40.791-112.827-48.686-212.343-46.947-235.826.721-9.731-5.008-34.271-11.642-62.687-9.221-39.5-20.7-88.65-22.195-127.105a1.751,1.751,0,1,1,3.5-.137c1.485,38.122,12.919,87.094,22.105,126.446,6.976,29.878,12.486,53.477,11.725,63.741-1.724,23.285,6.151,122.087,46.747,234.377,21.134,58.455,32.084,90.437,37.153,114.092,5.437,25.373,3.964,41.108-.657,61.269-9.378,40.927-7.8,77.98,4.108,96.7,11.039,17.347,11.589,40.526,12.17,65.068.075,3.149.151,6.338.249,9.559a1.753,1.753,0,0,1-1.75,1.8c-9.878,0-24.828,5.845-31.338,14.546-2.752,3.677-3.61,7.369-2.551,10.97a1.751,1.751,0,0,1-1.255,2.193c-4.463,1.116-8.176,5.084-9.461,10.11-1.432,5.6.4,11.266,5.02,15.533a1.751,1.751,0,0,1,.327,2.164,26.429,26.429,0,0,0,.4,27.466c1.878,2.781,3.8,3.9,4.778,3.757,3.719-.531,9.181-6.757,18.229-17.07,3.89-4.435,8.3-9.462,13.694-15.346a1.751,1.751,0,0,1,2.857,1.967c-7.242,14.484-6.5,26.6-2.543,32.188,1.291,1.825,2.834,2.762,4.231,2.594,4.783-.6,23.642-18.315,32.706-26.829,3.2-3,5.723-5.377,7.146-6.6,5.862-5.026,30.77-37.58,33.312-45.2,1.885-5.657,3.838-29.084,5.406-47.907.523-6.278,1.017-12.207,1.452-16.771.39-4.087.922-8.12,1.437-12.02,1.768-13.4,3.295-24.964-1.672-31.586-6.512-8.684-40.773-86.985-43.143-115.419-.783-9.4-.379-30.231.132-56.6,1.012-52.192,2.541-131.064-3.6-197.857-6.833-74.314-21.119-109.171-29.654-130-3.083-7.521-5.518-13.462-6.748-19-2.594-11.67-2.172-61.341-1.636-124.226.42-49.593.9-105.8-.14-151.99l-.176-7.862c-2.137-95.388-2.411-107.643-12.79-151.4-7.706-32.492-20.122-52.985-40.255-66.448-19.03-12.724-44.012-18.777-75.64-26.439l-5.136-1.245C895.56,679.565,858.363,666.5,825.3,651.456c-15.119-6.882-50.286-23.813-50.286-32.378V559.844a1.751,1.751,0,1,1,3.5,0v59.233c0,2.8,13.1,13.2,48.234,29.191,32.87,14.962,69.84,27.944,101.427,35.619l5.133,1.245c63.405,15.36,101.675,24.632,118.479,95.482,10.464,44.115,10.74,56.414,12.884,152.13l.176,7.861c1.039,46.243.561,102.481.14,152.1-.51,60.183-.953,112.159,1.553,123.438,1.166,5.246,3.551,11.064,6.57,18.431,8.609,21.008,23.02,56.169,29.9,131,6.16,66.987,4.628,145.977,3.615,198.247-.51,26.273-.912,47.026-.144,56.246,2.333,28,36.045,105.064,42.454,113.608,5.824,7.767,4.211,19.991,2.343,34.146-.511,3.869-1.039,7.87-1.422,11.893-.433,4.544-.926,10.464-1.449,16.73-1.666,20-3.555,42.667-5.573,48.723-2.737,8.209-28.15,41.436-34.355,46.756-1.362,1.167-3.862,3.516-7.028,6.49-15.153,14.235-29.206,27.069-34.669,27.751A6.182,6.182,0,0,1,1066.014,1926.212Z" transform="translate(-700.441 -558.093)" fill="#161615" stroke="#707070" stroke-width="1"/>
        <path id="Path_753" data-name="Path 753" d="M767.916,713.851a1.752,1.752,0,0,1-.522-3.423c.313-.1,31.555-9.856,46.03-13.9a111.948,111.948,0,0,1,29.1-4.4,1.751,1.751,0,1,1,0,3.5,108.294,108.294,0,0,0-28.157,4.274c-14.424,4.025-45.614,13.767-45.928,13.865A1.783,1.783,0,0,1,767.916,713.851Z" transform="translate(-699.339 -574.772)" fill="#161615" stroke="#707070" stroke-width="1"/>
        <path id="Path_754" data-name="Path 754" d="M844.722,1129.063c-45.739,0-72.807-23.28-91.631-39.466-9.254-7.958-16.563-14.242-22.794-14.935a1.886,1.886,0,1,1,.416-3.75c7.392.82,15.09,7.442,24.839,15.824,21.422,18.42,53.795,46.258,112.978,36.531,29.935-4.921,51.691-18.315,64.666-39.809,19.825-32.845,13.965-75.055,7.378-94.817-4.148-12.447-6.41-30.367-6.049-47.936.177-8.567,1.323-28.91,8.15-32.812a1.887,1.887,0,0,1,1.872,3.276c-6.807,3.89-9.536,48.845-.392,76.277,6.792,20.377,12.808,63.939-7.728,97.96-13.571,22.485-36.209,36.475-67.283,41.583A150.432,150.432,0,0,1,844.722,1129.063Z" transform="translate(-694.667 -601.589)" fill="#161615" stroke="#707070" stroke-width="1"/>
        <path id="Path_755" data-name="Path 755" d="M874.48,3284.611c-8.63,0-16.27-3.879-20.072-10.413-2.724-4.68-9.2-6.652-16.7-8.933-13.9-4.23-31.2-9.495-31.3-36.074-.074-20.17-11.06-29.913-21.685-39.336-9.584-8.5-18.636-16.527-18.262-31.147.342-13.335,3.075-25.038,5.485-35.363,2.945-12.613,5.488-23.505,2.707-33.243l-.48-1.678c-5.124-17.885-10.421-36.377-.45-63.6,9.3-25.384,8.751-207.746-18.21-336.964-13.045-62.523-5.908-112.491.993-160.815,7.185-50.311,13.971-97.831.005-158.61-24.565-106.9-45.908-245.1-58.555-379.172-7.138-75.653-10.218-169.133-6.593-200.045a1.751,1.751,0,0,1,3.479.408c-3.6,30.716-.517,123.852,6.6,199.309,12.634,133.923,33.95,271.96,58.482,378.714,14.112,61.415,6.963,111.477.049,159.891-6.859,48.023-13.951,97.682-1.031,159.6,25.7,123.165,28.611,310.1,18.07,338.882-9.579,26.156-4.441,44.09.528,61.436l.481,1.682c3.03,10.611.391,21.913-2.664,35-2.372,10.162-5.062,21.68-5.394,34.656-.334,12.992,7.738,20.15,17.084,28.438,10.679,9.47,22.783,20.2,22.864,41.941.089,23.994,15.35,28.639,28.814,32.738,7.863,2.393,15.289,4.654,18.7,10.522,3.625,6.229,11.577,9.554,20.266,8.469,7-.873,15.412-5.029,18-14.074a1.751,1.751,0,0,1,2.934-.743c3.4,3.466,10.656,6.456,17.424,5.169,4.95-.941,8.689-4.1,10.811-9.127a1.752,1.752,0,0,1,3-.384c3.081,4.027,10.966,5.831,16.873,3.862,2.9-.966,6.369-3.193,6.421-8.32a1.751,1.751,0,0,1,3.016-1.193c6.047,6.325,12.889,2.663,14.843,1.391,3.48-2.269,4.973-5.2,4.627-6.039a1.751,1.751,0,0,1,1.218-2.374c2.835-.665,6.68-2.691,8.184-6.209,1.311-3.068.688-6.809-1.852-11.118-2.684-4.556-14.811-11.524-28.853-19.594-22.88-13.148-51.356-29.511-64.783-48.952-23.217-33.614-35.639-91.578-35.922-167.623-.149-40.216,19.64-122.318,40.59-209.24,20.031-83.1,40.744-169.038,44.665-221.939,5.452-73.544-10.917-150.8-20.7-196.962-4.741-22.38-7.873-37.164-6.9-43.007,3.749-22.612,8.343-56.9,4.974-93.463-1.647-17.874,9.471-58.184,24.858-113.977,18.263-66.222,43.276-156.916,56.8-249.975,12.339-84.914,13.323-143.9,3.4-203.612-10.4-62.565-33.871-128.089-63.472-207.25-50.266-134.422-39.258-208.569-29.546-273.988,2.8-18.88,5.45-36.712,6.411-54.93a1.751,1.751,0,1,1,3.5.185c-.97,18.382-3.629,36.295-6.444,55.259-9.65,65-20.586,138.672,29.361,272.248,29.668,79.34,53.193,145.026,63.647,207.9,9.991,60.09,9.01,119.392-3.385,204.691-13.555,93.274-38.6,184.091-56.888,250.4-14.714,53.349-26.335,95.488-24.747,112.725,3.406,36.962-1.226,71.554-5.006,94.357-.861,5.192,2.384,20.51,6.876,41.709,9.819,46.343,26.251,123.906,20.762,197.947-3.942,53.186-24.689,139.261-44.753,222.5-20.9,86.71-40.641,168.612-40.493,208.406.28,75.336,12.487,132.615,35.3,165.646,12.978,18.789,41.072,34.933,63.646,47.9,15.07,8.66,26.974,15.5,30.127,20.852,3.136,5.323,3.827,10.125,2.054,14.274-1.756,4.109-5.614,6.638-9.095,7.811-.218,2.95-3.068,6.3-6.243,8.368-4.517,2.944-10.995,4.3-16.738.293-1.084,3.856-4,6.769-8.347,8.217-6.316,2.1-14.288.651-18.884-3.131a17.4,17.4,0,0,1-12.257,8.9,24.7,24.7,0,0,1-18.536-4.389c-3.238,7.605-10.69,12.907-20.045,14.073A29.45,29.45,0,0,1,874.48,3284.611Z" transform="translate(-689.842 -628.706)" fill="#161615" stroke="#707070" stroke-width="1"/>
      </g>
    </g>
  </g>
</svg>
